<svg width="60" height="60" viewBox="0 0 2000 2000" fill="none" xmlns="http://www.w3.org/2000/svg">
<path d="M1000 0C802.219 0 608.879 58.6489 444.43 168.53C279.981 278.412 151.808 434.59 76.1209 617.316C0.433298 800.043 -19.3701 1001.11 19.2152 1195.09C57.8004 1389.07 153.041 1567.25 292.894 1707.11C432.746 1846.95 610.929 1942.2 804.91 1980.78C998.891 2019.37 1199.95 1999.56 1382.68 1923.88C1565.41 1848.19 1721.59 1720.02 1831.47 1555.57C1941.35 1391.12 2000 1197.78 2000 1000C2000 734.784 1894.65 480.429 1707.11 292.893C1519.57 105.357 1265.22 0 1000 0ZM1000 1875C826.942 1875 657.769 1823.68 513.876 1727.54C369.984 1631.39 257.833 1494.74 191.605 1334.85C125.379 1174.96 108.051 999.027 141.814 829.296C175.575 659.563 258.911 503.653 381.282 381.282C503.653 258.911 659.563 175.575 829.296 141.813C999.027 108.051 1174.96 125.379 1334.85 191.605C1494.74 257.832 1631.39 369.983 1727.54 513.876C1823.68 657.769 1875 826.941 1875 1000C1875 1232.06 1782.81 1454.63 1618.72 1618.72C1454.63 1782.81 1232.06 1875 1000 1875Z" fill="white"/>
<path d="M1751.94 1174.92C1741.52 1169.74 1728.97 1172.79 1721.89 1182.24C1690.55 1224.1 1649.79 1262.7 1600.72 1296.95C1316.32 1495.09 926.455 1420.77 731.795 1131.12C540.485 846.502 609.642 452.945 885.935 253.822C895.234 247.119 898.821 234.744 894.613 223.915C890.383 213.064 879.313 206.731 868.247 208.375C754.482 225.856 642.869 270.984 545.434 338.847C369.709 461.269 251.499 646.102 212.605 859.32C173.88 1071.55 218.485 1286.56 338.2 1464.72C492.103 1693.65 741.765 1816.86 995.587 1816.86C1150.23 1816.86 1306.42 1771.11 1443.4 1675.65C1604.47 1563.47 1718.69 1395.83 1765.06 1203.6C1767.86 1192.06 1762.36 1180.08 1751.94 1174.92ZM1415.91 1634.06C1076.36 1870.65 610.932 1781.97 378.504 1436.14C266.248 1269.13 224.414 1067.55 260.725 868.577C297.203 668.642 408.075 495.299 572.924 380.44C636.081 336.441 705.574 302.658 777.671 280.56C547.777 508.607 504.939 882.106 691.494 1159.7C901.379 1471.94 1321.63 1552.15 1628.21 1338.54C1648.43 1324.45 1667.37 1309.64 1684.96 1294.18C1630.6 1431.03 1537.49 1549.38 1415.91 1634.06Z" fill="white"/>
<path d="M1756.48 884.338C1749.47 880.715 1741.03 882.845 1736.27 889.457C1715.2 918.737 1687.8 945.734 1654.8 969.69C1463.59 1108.28 1201.47 1056.29 1070.59 853.702C941.965 654.629 988.462 379.359 1174.23 240.085C1180.48 235.396 1182.89 226.741 1180.06 219.167C1177.22 211.577 1169.77 207.147 1162.33 208.297C1085.84 220.524 1010.8 252.088 945.293 299.555C827.145 385.182 747.668 514.461 721.517 663.594C695.481 812.039 725.471 962.426 805.96 1087.03C909.435 1247.16 1077.29 1333.33 1247.95 1333.33C1351.92 1333.33 1456.94 1301.34 1549.03 1234.57C1657.33 1156.1 1734.12 1038.85 1765.3 904.398C1767.18 896.326 1763.48 887.945 1756.48 884.338ZM1530.55 1205.48C1302.26 1370.96 989.329 1308.93 833.059 1067.04C757.584 950.232 729.457 809.239 753.871 670.069C778.396 530.226 852.94 408.984 963.775 328.646C1006.24 297.872 1052.96 274.242 1101.43 258.787C946.868 418.291 918.066 679.531 1043.49 873.692C1184.61 1092.08 1467.16 1148.19 1673.29 998.782C1686.88 988.924 1699.61 978.568 1711.44 967.749C1674.89 1063.47 1612.29 1146.25 1530.55 1205.48Z" fill="white"/>
</svg>
